<?xml version="1.0" encoding="UTF-8"?>
<svg width="1372px" height="186px" viewBox="0 0 1372 186" version="1.1" xmlns="http://www.w3.org/2000/svg" xmlns:xlink="http://www.w3.org/1999/xlink">
    <!-- Generator: Sketch 49.3 (51167) - http://www.bohemiancoding.com/sketch -->
    <title>bigThankYou</title>
    <desc>Created with Sketch.</desc>
    <defs></defs>
    <g id="Page-1" stroke="none" stroke-width="1" fill="none" fill-rule="evenodd">
        <g id="bigThankYou" fill="#FFFFFF">
            <path d="M47.665,173.2025 C32.9599265,165.29746 21.4000421,154.33257 12.985,140.3075 C4.56995793,126.28243 0.3625,110.430088 0.3625,92.75 C0.3625,75.0699116 4.56995793,59.2175701 12.985,45.1925 C21.4000421,31.1674299 32.9599265,20.2025395 47.665,12.2975 C62.3700735,4.39246047 78.9024082,0.44 97.2625,0.44 C112.732577,0.44 126.714938,3.1599728 139.21,8.6 C151.705062,14.0400272 162.202458,21.859949 170.7025,32.06 L144.1825,56.54 C132.11244,42.5999303 117.152589,35.63 99.3025,35.63 C88.2524448,35.63 78.3925434,38.0524758 69.7225,42.8975 C61.0524567,47.7425242 54.2950242,54.4999567 49.45,63.17 C44.6049758,71.8400434 42.1825,81.6999448 42.1825,92.75 C42.1825,103.800055 44.6049758,113.659957 49.45,122.33 C54.2950242,131.000043 61.0524567,137.757476 69.7225,142.6025 C78.3925434,147.447524 88.2524448,149.87 99.3025,149.87 C117.152589,149.87 132.11244,142.815071 144.1825,128.705 L170.7025,153.185 C162.202458,163.555052 151.662563,171.459973 139.0825,176.9 C126.502437,182.340027 112.477577,185.06 97.0075,185.06 C78.8174091,185.06 62.3700735,181.10754 47.665,173.2025 Z M360.4225,3.5 L360.4225,182 L319.3675,182 L319.3675,37.16 L238.7875,37.16 L238.7875,182 L197.7325,182 L197.7325,3.5 L360.4225,3.5 Z M525.6625,143.75 L442.7875,143.75 L426.9775,182 L384.6475,182 L464.2075,3.5 L505.0075,3.5 L584.8225,182 L541.4725,182 L525.6625,143.75 Z M512.6575,112.385 L484.3525,44.045 L456.0475,112.385 L512.6575,112.385 Z M641.05,173.2025 C626.344926,165.29746 614.785042,154.33257 606.37,140.3075 C597.954958,126.28243 593.7475,110.430088 593.7475,92.75 C593.7475,75.0699116 597.954958,59.2175701 606.37,45.1925 C614.785042,31.1674299 626.344926,20.2025395 641.05,12.2975 C655.755074,4.39246047 672.287408,0.44 690.6475,0.44 C706.117577,0.44 720.099938,3.1599728 732.595,8.6 C745.090062,14.0400272 755.587457,21.859949 764.0875,32.06 L737.5675,56.54 C725.49744,42.5999303 710.537589,35.63 692.6875,35.63 C681.637445,35.63 671.777543,38.0524758 663.1075,42.8975 C654.437457,47.7425242 647.680024,54.4999567 642.835,63.17 C637.989976,71.8400434 635.5675,81.6999448 635.5675,92.75 C635.5675,103.800055 637.989976,113.659957 642.835,122.33 C647.680024,131.000043 654.437457,137.757476 663.1075,142.6025 C671.777543,147.447524 681.637445,149.87 692.6875,149.87 C710.537589,149.87 725.49744,142.815071 737.5675,128.705 L764.0875,153.185 C755.587457,163.555052 745.047563,171.459973 732.4675,176.9 C719.887437,182.340027 705.862577,185.06 690.3925,185.06 C672.202409,185.06 655.755074,181.10754 641.05,173.2025 Z M791.1175,3.5 L832.1725,3.5 L832.1725,119.78 L917.3425,3.5 L956.1025,3.5 L956.1025,182 L915.3025,182 L915.3025,65.975 L830.1325,182 L791.1175,182 L791.1175,3.5 Z M1000.4725,3.5 L1144.5475,3.5 L1144.5475,36.395 L1041.5275,36.395 L1041.5275,73.115 L1090.9975,73.115 C1112.58761,73.115 1129.03494,77.619955 1140.34,86.63 C1151.64506,95.640045 1157.2975,108.644915 1157.2975,125.645 C1157.2975,143.495089 1151.00756,157.349951 1138.4275,167.21 C1125.84744,177.070049 1108.08261,182 1085.1325,182 L1000.4725,182 L1000.4725,3.5 Z M1082.8375,151.4 C1093.37755,151.4 1101.45247,149.317521 1107.0625,145.1525 C1112.67253,140.987479 1115.4775,134.91004 1115.4775,126.92 C1115.4775,111.279922 1104.59761,103.46 1082.8375,103.46 L1041.5275,103.46 L1041.5275,151.4 L1082.8375,151.4 Z M1223.725,173.075 C1208.84993,165.08496 1197.20504,154.07757 1188.79,140.0525 C1180.37496,126.02743 1176.1675,110.260088 1176.1675,92.75 C1176.1675,75.2399125 1180.37496,59.4725701 1188.79,45.4475 C1197.20504,31.4224299 1208.84993,20.4150399 1223.725,12.425 C1238.60007,4.43496005 1255.30241,0.44 1273.8325,0.44 C1292.36259,0.44 1309.02243,4.43496005 1323.8125,12.425 C1338.60257,20.4150399 1350.24746,31.4224299 1358.7475,45.4475 C1367.24754,59.4725701 1371.4975,75.2399125 1371.4975,92.75 C1371.4975,110.260088 1367.24754,126.02743 1358.7475,140.0525 C1350.24746,154.07757 1338.60257,165.08496 1323.8125,173.075 C1309.02243,181.06504 1292.36259,185.06 1273.8325,185.06 C1255.30241,185.06 1238.60007,181.06504 1223.725,173.075 Z M1302.3925,142.6025 C1310.89254,137.757476 1317.56498,131.000043 1322.41,122.33 C1327.25502,113.659957 1329.6775,103.800055 1329.6775,92.75 C1329.6775,81.6999448 1327.25502,71.8400434 1322.41,63.17 C1317.56498,54.4999567 1310.89254,47.7425242 1302.3925,42.8975 C1293.89246,38.0524758 1284.37255,35.63 1273.8325,35.63 C1263.29245,35.63 1253.77254,38.0524758 1245.2725,42.8975 C1236.77246,47.7425242 1230.10002,54.4999567 1225.255,63.17 C1220.40998,71.8400434 1217.9875,81.6999448 1217.9875,92.75 C1217.9875,103.800055 1220.40998,113.659957 1225.255,122.33 C1230.10002,131.000043 1236.77246,137.757476 1245.2725,142.6025 C1253.77254,147.447524 1263.29245,149.87 1273.8325,149.87 C1284.37255,149.87 1293.89246,147.447524 1302.3925,142.6025 Z" id="СПАСИБО"></path>
        </g>
    </g>
</svg>