<?xml version="1.0" encoding="UTF-8"?>
<svg width="75px" height="75px" viewBox="0 0 75 75" version="1.1" xmlns="http://www.w3.org/2000/svg" xmlns:xlink="http://www.w3.org/1999/xlink">
    <!-- Generator: Sketch 49.3 (51167) - http://www.bohemiancoding.com/sketch -->
    <title>Artboard</title>
    <desc>Created with Sketch.</desc>
    <defs></defs>
    <g id="Artboard" stroke="none" stroke-width="1" fill="none" fill-rule="evenodd">
        <g id="card-icon" transform="translate(38.000000, 35.000000) rotate(-7.000000) translate(-38.000000, -35.000000) translate(3.000000, 7.000000)">
            <path d="M3.38875463,0.597850233 C2.20579954,0.45871173 1.19073968,1.69824199 1.19073968,3.46725069 L1.19073968,52.3622171 C1.19073968,54.1312258 2.20579954,55.370756 3.38875463,55.2316175 L66.7864617,47.7748154 C68.0620276,47.6247841 69.1012908,46.5120019 69.1012908,45.319977 L69.1012908,10.5094908 C69.1012908,9.31746587 68.0620276,8.2046837 66.7864617,8.05465237 L3.38875463,0.597850233 Z" id="Rectangle-8" stroke="#FFFFFF"></path>
            <path d="M10.3382168,11.5359023 L16.5401664,11.9783676 C17.3013314,12.0326713 17.9183775,12.8432805 17.9183775,13.7889138 L17.9183775,19.781686 C17.9183775,20.7273193 17.3013314,21.4760599 16.5401664,21.4540448 L10.3382168,21.274667 C9.57705191,21.252652 8.96000582,20.4372837 8.96000582,19.453491 L8.96000582,13.218891 C8.96000582,12.2350982 9.57705191,11.4815986 10.3382168,11.5359023 Z" id="Rectangle" fill="#FFFFFF"></path>
            <polygon id="Rectangle-Copy" fill="#FFFFFF" opacity="0.34935462" points="19.985694 34.2757686 62.0211302 33.0599856 62.0211302 37.8622206 19.985694 40.2127343"></polygon>
        </g>
    </g>
</svg>