<?xml version="1.0" encoding="UTF-8"?>
<svg width="75px" height="75px" viewBox="0 0 75 75" version="1.1" xmlns="http://www.w3.org/2000/svg" xmlns:xlink="http://www.w3.org/1999/xlink">
    <!-- Generator: Sketch 49.3 (51167) - http://www.bohemiancoding.com/sketch -->
    <title>Artboard</title>
    <desc>Created with Sketch.</desc>
    <defs></defs>
    <g id="Artboard" stroke="none" stroke-width="1" fill="none" fill-rule="evenodd">
        <g id="garantee-icon" transform="translate(15.000000, 0.000000)">
            <path d="M0.5,0.543722419 L0.5,74.3898907 L42.7989691,65.9154327 L42.7989691,7.80537444 L39.3729119,3.80628635 L0.5,0.543722419 Z" id="Rectangle-9" stroke="#FFFFFF"></path>
            <polygon id="Path-6" fill="#FFFFFF" points="38.6597938 3.09278351 38.6597938 7.73195876 44.0721649 7.73195876"></polygon>
            <polygon id="Rectangle-9" fill="#FFFFFF" opacity="0.2" points="8.50515464 18.556701 37.1134021 19.2234856 37.1134021 40.2061856 37.1134021 56.8475354 8.50515464 61.8556701"></polygon>
            <polygon id="Rectangle-9-Copy" fill="#FFFFFF" opacity="0.2" points="8.50515464 9.27835052 37.1134021 10.8284198 37.1134021 11.5007812 37.1134021 14.6907216 8.50515464 13.7232119"></polygon>
            <path d="M34.6860595,50.327952 L34.9015694,50.2974777 C37.4461022,49.9376657 39.8005389,51.7087319 40.1603508,54.2532648 C40.1908696,54.4690889 40.2061856,54.6867907 40.2061856,54.9047619 L40.2061856,54.9047619 C40.2061856,57.9777273 37.9442651,60.581999 34.9015694,61.0122541 L34.6860595,61.0427285 C32.1415266,61.4025405 29.78709,59.6314742 29.4272781,57.0869414 C29.3967593,56.8711173 29.3814433,56.6534155 29.3814433,56.4354443 L29.3814433,56.4354443 C29.3814433,53.3624789 31.6433638,50.7582071 34.6860595,50.327952 Z" id="Rectangle-13" fill="#FFFFFF"></path>
        </g>
    </g>
</svg>