<?xml version="1.0" encoding="UTF-8"?>
<svg width="188px" height="177px" viewBox="0 0 188 177" version="1.1" xmlns="http://www.w3.org/2000/svg" xmlns:xlink="http://www.w3.org/1999/xlink">
    <!-- Generator: Sketch 49.3 (51167) - http://www.bohemiancoding.com/sketch -->
    <title>icon-tester</title>
    <desc>Created with Sketch.</desc>
    <defs></defs>
    <g id="Page-1" stroke="none" stroke-width="1" fill="none" fill-rule="evenodd">
        <g id="Desktop" transform="translate(-879.000000, -12538.000000)">
            <g id="Tester" transform="translate(1.000000, 12218.000000)">
                <g id="icon-tester" transform="translate(878.000000, 320.000000)">
                    <polygon id="Rectangle-5" fill="#FFFFFF" opacity="0.5" transform="translate(96.507861, 99.470662) rotate(-345.000000) translate(-96.507861, -99.470662) " points="89.3601791 91.9402888 104.007861 92.0010349 104.007861 107.001035 89.0078611 107.001035"></polygon>
                    <polygon id="Rectangle-5-Copy" fill="#FFFFFF" opacity="0.5" transform="translate(91.500000, 116.500000) rotate(-345.000000) translate(-91.500000, -116.500000) " points="84.4208315 109.104394 99 109 99 124 84 124"></polygon>
                    <rect id="Rectangle-5-Copy-2" fill="#FFFFFF" opacity="0.129999995" transform="translate(86.500000, 133.500000) rotate(-345.000000) translate(-86.500000, -133.500000) " x="79" y="126" width="15" height="15"></rect>
                    <path d="M80.1537021,126.243096 L94.8740762,126.136504 C90.1401901,126.454789 86.523247,127.863932 84.023247,130.363932 C81.523247,132.863932 80.1944487,134.196199 80.0368521,134.360732 L80.1537021,126.243096 Z" id="Rectangle-5-Copy-5" fill="#FFFFFF" opacity="0.520115484" transform="translate(87.455464, 130.248618) rotate(-345.000000) translate(-87.455464, -130.248618) "></path>
                    <rect id="Rectangle-5-Copy-4" fill="#FFFFFF" opacity="0.129999995" transform="translate(82.185587, 150.185587) rotate(-345.000000) translate(-82.185587, -150.185587) " x="74.6855865" y="142.685587" width="15" height="15"></rect>
                    <rect id="Rectangle-5-Copy-6" fill="#FFFFFF" opacity="0.0695199275" transform="translate(77.185587, 167.185587) rotate(-345.000000) translate(-77.185587, -167.185587) " x="69.6855865" y="159.685587" width="15" height="15"></rect>
                    <polygon id="Rectangle-5-Copy-3" fill="#FFFFFF" opacity="0.5" transform="translate(101.641399, 82.743527) rotate(-343.000000) translate(-101.641399, -82.743527) " points="94.4217723 75.5085475 108.934978 75.0519821 108.934978 90.0519821 94.3478201 90.4350728"></polygon>
                    <polyline id="Path-9" stroke="#FFFFFF" points="73.1474609 134.735352 112.206055 0.954101562 136.285156 7.0859375 101.732422 128.305664"></polyline>
                    <path d="M0.9375,134.804036 C0.9375,134.804036 0.9375,134.804036 0.9375,134.804036 C7.41058009,138.0044 16.0762074,136.523997 26.934382,130.362829 L26.9343816,130.362828 C33.3092538,126.745584 41.1088685,126.713874 47.5129423,130.279163 L54.0670509,133.92798 C60.4180137,137.463701 68.145794,137.463701 74.4967567,133.92798 L81.4482811,130.057913 C87.7992438,126.522192 95.5270242,126.522192 101.877987,130.057913 L109.024795,134.036699 C115.375758,137.57242 123.103538,137.57242 129.454501,134.036699 L136.583197,130.067996 C142.93416,126.532275 150.66194,126.532275 157.012903,130.067996 L167.549592,135.934003 C171.352285,138.051046 175.97936,138.051046 179.782054,135.934003 L184.849625,133.112774 C185.548162,132.723883 186.22392,132.295419 186.873599,131.829474 L187.06543,131.691895" id="Path-8" stroke="#FFFFFF" stroke-width="2"></path>
                    <path d="M0.9375,142.804036 C0.9375,142.804036 0.9375,142.804036 0.9375,142.804036 C7.41058009,146.0044 16.0762074,144.523997 26.934382,138.362829 L26.9343816,138.362828 C33.3092538,134.745584 41.1088685,134.713874 47.5129423,138.279163 L54.0670509,141.92798 C60.4180137,145.463701 68.145794,145.463701 74.4967567,141.92798 L81.4482811,138.057913 C87.7992438,134.522192 95.5270242,134.522192 101.877987,138.057913 L109.024795,142.036699 C115.375758,145.57242 123.103538,145.57242 129.454501,142.036699 L136.583197,138.067996 C142.93416,134.532275 150.66194,134.532275 157.012903,138.067996 L167.549592,143.934003 C171.352285,146.051046 175.97936,146.051046 179.782054,143.934003 L184.849625,141.112774 C185.548162,140.723883 186.22392,140.295419 186.873599,139.829474 L187.06543,139.691895" id="Path-8-Copy" stroke="#FFFFFF" stroke-width="2" opacity="0.373697917"></path>
                    <path d="M0.9375,151.804036 C0.9375,151.804036 0.9375,151.804036 0.9375,151.804036 C7.41058009,155.0044 16.0762074,153.523997 26.934382,147.362829 L26.9343816,147.362828 C33.3092538,143.745584 41.1088685,143.713874 47.5129423,147.279163 L54.0670509,150.92798 C60.4180137,154.463701 68.145794,154.463701 74.4967567,150.92798 L81.4482811,147.057913 C87.7992438,143.522192 95.5270242,143.522192 101.877987,147.057913 L109.024795,151.036699 C115.375758,154.57242 123.103538,154.57242 129.454501,151.036699 L136.583197,147.067996 C142.93416,143.532275 150.66194,143.532275 157.012903,147.067996 L167.549592,152.934003 C171.352285,155.051046 175.97936,155.051046 179.782054,152.934003 L184.849625,150.112774 C185.548162,149.723883 186.22392,149.295419 186.873599,148.829474 L187.06543,148.691895" id="Path-8-Copy-2" stroke="#FFFFFF" stroke-width="2" opacity="0.373697917"></path>
                </g>
            </g>
        </g>
    </g>
</svg>